<?xml version="1.0" standalone="no"?>
<!DOCTYPE svg PUBLIC "-//W3C//DTD SVG 20010904//EN"
 "http://www.w3.org/TR/2001/REC-SVG-20010904/DTD/svg10.dtd">
<svg version="1.0" xmlns="http://www.w3.org/2000/svg"
 width="300.000000pt" height="300.000000pt" viewBox="0 0 300.000000 300.000000"
 preserveAspectRatio="xMidYMid meet">
<metadata>
Created by potrace 1.11, written by Peter Selinger 2001-2013
</metadata>
<g transform="translate(0.000000,300.000000) scale(0.100000,-0.100000)"
fill="#000000" stroke="none">
<path d="M1633 2728 c-12 -15 -90 -164 -367 -701 -42 -81 -76 -154 -76 -162 0
-8 23 -31 51 -51 44 -32 49 -40 44 -64 -4 -20 -2 -29 9 -33 18 -7 11 -21 182
318 70 138 150 295 179 350 102 196 165 322 165 334 0 19 -28 12 -35 -9 -8
-26 -21 -25 -70 5 -45 27 -68 31 -82 13z"/>
<path d="M285 2270 c-3 -6 4 -19 16 -29 l23 -18 -28 -67 c-27 -62 -27 -68 -12
-85 9 -10 128 -90 264 -177 136 -88 303 -196 371 -242 69 -45 132 -81 140 -80
13 3 60 74 74 112 2 5 13 4 25 -3 18 -9 23 -8 32 8 9 18 -4 28 -123 101 -72
44 -271 171 -442 281 -171 111 -315 203 -321 206 -7 2 -15 -1 -19 -7z"/>
<path d="M1126 1807 l-30 -13 30 -21 c79 -56 117 -62 141 -24 10 17 7 22 -27
45 -43 29 -70 32 -114 13z"/>
<path d="M1348 1746 c-30 -62 -31 -65 -14 -90 9 -14 21 -26 26 -26 5 0 21 22
35 49 13 27 34 52 45 56 11 3 20 10 20 14 0 7 -36 36 -67 55 -9 5 -23 -14 -45
-58z"/>
<path d="M1422 1689 c-48 -87 -51 -90 -71 -80 -17 10 -41 -2 -41 -20 0 -11
346 -229 364 -229 3 0 6 7 6 16 0 8 12 28 28 43 15 16 37 42 49 59 l22 30 -32
24 c-53 41 -288 188 -298 188 -6 0 -18 -14 -27 -31z"/>
<path d="M1223 1702 c-6 -4 -16 -20 -22 -35 -20 -52 24 -99 77 -82 39 12 45
94 9 117 -15 10 -49 10 -64 0z m55 -55 c4 -20 -25 -34 -40 -19 -15 15 -1 44
19 40 10 -2 19 -11 21 -21z"/>
<path d="M1117 1621 c-43 -77 -50 -80 -110 -48 -28 15 -55 23 -59 19 -5 -5
-11 -25 -15 -46 l-6 -37 108 3 108 3 18 30 c24 41 24 101 1 114 -15 8 -22 2
-45 -38z"/>
<path d="M1164 1518 c-17 -35 -107 -214 -201 -398 -181 -355 -231 -431 -258
-393 -7 10 -11 20 -9 23 3 2 9 -2 14 -10 7 -11 11 -11 24 -1 18 15 22 61 5 61
-6 0 -10 10 -9 23 1 12 2 31 1 42 -1 17 -3 18 -12 5 -8 -12 -9 -10 -4 8 4 14
-1 37 -13 60 -10 20 -25 54 -32 76 -7 23 -15 34 -20 27 -4 -7 -14 6 -24 34
-10 25 -20 44 -22 42 -9 -9 39 -106 50 -100 6 3 6 0 -1 -7 -11 -12 -16 -11
-29 6 -14 18 -15 17 -10 -20 l5 -39 -29 34 c-20 22 -28 27 -23 14 3 -11 9 -24
13 -30 4 -5 7 -17 7 -25 1 -25 64 -174 79 -186 10 -8 11 -13 4 -16 -19 -6 0
-36 31 -48 16 -7 28 -15 25 -17 -2 -3 -14 0 -25 7 -25 13 -28 -3 -9 -45 8 -17
8 -29 1 -36 -6 -6 -19 13 -38 58 -42 100 -48 98 -15 -6 15 -50 26 -91 25 -91
-2 0 -14 18 -26 40 -12 22 -25 38 -27 35 -2 -2 8 -26 23 -52 l26 -48 -30 29
c-41 39 -48 29 -10 -14 17 -19 48 -61 71 -93 22 -32 42 -56 45 -54 6 7 -14 45
-49 90 -16 20 -23 35 -15 31 8 -3 20 -17 26 -31 14 -32 25 -25 12 8 -6 17 -4
33 5 52 8 15 16 27 18 27 2 0 9 -39 15 -87 7 -49 14 -99 17 -111 3 -16 1 -21
-6 -17 -8 5 -10 -11 -8 -52 l3 -58 325 0 c279 1 325 3 325 15 0 9 -8 14 -20
12 -158 -24 -271 -8 -314 45 l-26 33 -122 0 c-103 0 -123 2 -123 15 0 12 19
15 115 15 l114 0 -5 88 c-3 48 -1 107 5 132 49 220 68 240 235 240 64 0 98 4
112 14 19 14 19 15 -4 45 -12 17 -22 39 -22 50 0 32 40 91 66 97 48 12 104
-31 104 -80 0 -20 46 -58 67 -54 10 2 20 14 22 28 3 22 -33 355 -45 418 -3 14
-27 37 -66 62 -55 36 -68 40 -124 40 l-63 0 17 -30 17 -29 -67 -133 c-187
-370 -376 -729 -392 -747 -20 -22 -51 -28 -61 -11 -3 6 4 10 18 10 31 0 30 -1
114 160 229 440 364 712 361 727 -2 10 -26 33 -54 53 -46 32 -50 38 -41 58 8
18 7 26 -4 33 -22 14 -23 13 -55 -53z m334 -300 l3 -78 -36 0 -35 0 0 73 c0
41 3 77 7 81 4 4 19 6 33 4 24 -3 25 -6 28 -80z m-178 -197 c5 -11 10 -47 10
-80 l0 -61 -40 0 -40 0 0 61 c0 69 12 99 40 99 11 0 24 -9 30 -19z m-670 -71
c0 -5 -2 -10 -4 -10 -3 0 -8 5 -11 10 -3 6 -1 10 4 10 6 0 11 -4 11 -10z m16
-54 c8 -8 13 -25 13 -38 -1 -20 -2 -21 -6 -3 -3 11 -12 28 -21 38 -18 20 -7
23 14 3z m38 -112 c9 -24 2 -26 -12 -4 -7 11 -8 20 -3 20 5 0 12 -7 15 -16z
m84 -211 c20 -17 20 -20 7 -72 -8 -30 -16 -56 -18 -58 -2 -1 -8 31 -13 72 -5
41 -7 75 -3 75 4 0 16 -8 27 -17z"/>
<path d="M1257 1552 c-10 -10 -17 -23 -17 -29 0 -14 50 -21 102 -13 l43 6 -42
27 c-50 32 -64 33 -86 9z"/>
<path d="M955 1458 c-2 -7 -11 -78 -20 -158 -9 -80 -19 -163 -22 -185 -4 -28
-2 -37 5 -30 6 6 54 94 107 198 l97 187 -81 0 c-56 0 -83 -4 -86 -12z"/>
<path d="M1800 1410 c0 -10 -9 -22 -20 -25 -13 -4 -19 -13 -16 -23 11 -42 15
-88 8 -98 -9 -15 -51 -20 -75 -9 -11 5 -23 3 -30 -5 -9 -10 -9 -14 0 -17 9 -3
10 -10 2 -24 -14 -26 15 -37 40 -15 10 9 23 16 29 16 6 0 16 8 21 18 7 12 10
-21 11 -115 l0 -133 -35 -39 c-40 -44 -42 -51 -17 -51 10 0 28 13 40 30 13 16
31 30 42 30 10 0 22 5 26 11 3 6 17 9 30 6 16 -3 24 1 24 9 1 8 1 53 2 102 0
48 3 103 5 122 l5 35 121 -6 c67 -3 132 -11 143 -17 15 -8 24 -26 30 -59 6
-33 15 -49 27 -51 14 -3 17 4 17 46 0 32 5 54 15 62 17 14 22 95 5 85 -6 -4
-8 -15 -5 -25 6 -20 19 -21 -174 19 -112 23 -181 27 -181 11 0 -7 -6 -7 -20 0
-14 8 -20 21 -20 46 0 41 -13 69 -35 78 -10 4 -15 -1 -15 -14z"/>
<path d="M1910 1411 c0 -28 14 -41 44 -41 l31 1 -28 24 c-29 26 -47 32 -47 16z"/>
<path d="M275 1081 c36 -38 43 -50 25 -41 -14 7 -36 22 -49 34 -14 11 -7 0 15
-26 25 -30 47 -47 62 -48 12 0 22 -4 22 -9 0 -14 -54 0 -77 21 -20 19 -21 19
-18 2 1 -11 8 -18 14 -17 6 2 20 -15 31 -37 14 -28 29 -42 53 -49 17 -5 26
-10 18 -10 -22 -2 8 -31 33 -32 11 0 15 -3 8 -6 -16 -6 3 -33 25 -33 8 0 11
-4 8 -10 -3 -5 3 -15 15 -22 11 -7 20 -18 20 -25 0 -7 11 -13 25 -13 18 0 26
7 31 24 6 26 -4 72 -14 62 -3 -4 -12 6 -19 21 -20 44 -35 65 -74 105 -20 20
-35 40 -33 43 2 3 1 3 -3 0 -4 -3 -34 20 -67 52 -33 32 -50 46 -37 31 33 -38
15 -35 -29 4 -19 18 -12 9 15 -21z m60 -31 c10 -11 16 -20 13 -20 -3 0 -13 9
-23 20 -10 11 -16 20 -13 20 3 0 13 -9 23 -20z m96 -153 c11 -10 19 -23 19
-29 0 -6 -13 6 -30 27 -16 21 -30 43 -30 49 0 6 6 2 12 -9 6 -11 19 -28 29
-38z m54 -67 c3 -5 1 -10 -4 -10 -6 0 -11 5 -11 10 0 6 2 10 4 10 3 0 8 -4 11
-10z m22 -22 c-3 -8 -6 -5 -6 6 -1 11 2 17 5 13 3 -3 4 -12 1 -19z"/>
<path d="M2300 1085 c-138 -15 -248 -40 -272 -62 -22 -20 -23 -46 -3 -63 8 -7
15 -27 15 -45 0 -43 14 -53 96 -64 61 -9 72 -14 101 -46 28 -33 53 -103 53
-149 0 -32 47 -54 118 -55 25 -1 35 -7 42 -25 15 -41 42 -48 162 -44 96 3 112
6 125 23 14 19 14 18 9 -15 -6 -37 -48 -148 -71 -184 -7 -11 -16 -31 -20 -43
-6 -22 -3 -23 42 -23 26 0 44 4 38 8 -13 10 -35 49 -35 64 0 6 11 1 25 -12 14
-13 25 -29 25 -37 0 -15 26 -18 34 -4 4 5 1 11 -6 13 -7 3 0 12 17 23 34 21
55 44 55 59 0 5 -6 2 -13 -9 -10 -13 -16 -15 -21 -6 -5 7 7 25 29 46 31 28 35
36 26 52 -10 17 -10 17 -11 1 0 -10 -4 -18 -10 -18 -14 0 -13 8 11 50 15 26
19 45 14 57 -8 17 -8 17 -12 1 -3 -10 -9 -18 -14 -18 -12 0 -12 37 1 45 16 10
12 48 -4 42 -20 -8 -27 3 -15 25 8 15 7 23 -8 34 -24 18 -39 18 -23 -1 17 -20
5 -32 -15 -15 -12 10 -15 10 -15 -1 1 -8 15 -23 33 -34 31 -20 49 -55 28 -55
-6 0 -21 11 -33 25 -27 31 -34 31 -43 3 -5 -18 -8 -19 -12 -8 -11 27 -27 30
-190 30 l-162 0 -10 38 c-21 76 -41 199 -41 248 0 90 51 120 200 118 74 -1
205 -34 168 -42 -18 -3 -24 -23 -12 -35 11 -11 45 13 38 26 -4 7 3 3 16 -8 21
-18 23 -18 17 -2 -4 10 -7 20 -7 23 0 8 -63 35 -103 43 -160 33 -204 41 -222
40 -11 -1 -72 -7 -135 -14z m514 -518 c17 -14 27 -30 25 -41 -3 -14 -11 -9
-44 23 -42 44 -30 57 19 18z m16 -118 c0 -11 -7 -19 -15 -19 -8 0 -15 6 -15
14 0 8 -12 24 -26 35 -14 11 -23 25 -19 31 9 15 75 -38 75 -61z m-39 -62 c6
-9 7 -22 4 -27 -7 -11 -55 53 -55 72 0 13 38 -20 51 -45z"/>
<path d="M1682 988 c-17 -74 -6 -84 42 -42 30 26 30 26 9 43 -11 9 -24 24 -29
33 -7 14 -12 6 -22 -34z"/>
<path d="M2462 1018 c-27 -27 -3 -54 31 -36 22 11 22 25 -1 37 -13 7 -23 6
-30 -1z"/>
<path d="M2555 1010 c-9 -15 4 -30 25 -30 24 0 36 20 19 31 -19 12 -36 11 -44
-1z"/>
<path d="M2634 1009 c-8 -14 11 -33 25 -25 16 10 13 36 -3 36 -8 0 -18 -5 -22
-11z"/>
<path d="M1426 983 c-7 -16 19 -53 37 -53 6 0 2 9 -7 19 -10 11 -15 24 -12 30
4 5 2 12 -3 15 -5 3 -12 -1 -15 -11z"/>
<path d="M1628 873 c6 -2 18 -2 25 0 6 3 1 5 -13 5 -14 0 -19 -2 -12 -5z"/>
<path d="M1552 860 c-19 -4 -48 -21 -65 -36 -18 -16 -26 -22 -19 -14 16 18 16
40 -1 40 -7 0 -29 -11 -49 -25 -35 -24 -36 -25 -26 -67 5 -23 15 -56 22 -73
12 -25 15 -94 6 -130 -5 -21 -18 43 -19 93 -1 32 -5 52 -13 52 -6 0 -9 -3 -5
-6 3 -3 -5 -18 -18 -32 -13 -14 -28 -23 -31 -19 -4 4 5 20 20 35 17 18 24 35
20 45 -5 15 -8 14 -23 -5 -11 -13 -20 -17 -25 -10 -3 6 6 20 21 31 20 16 24
24 15 33 -13 13 -42 -6 -42 -28 0 -18 -3 -18 -42 6 -18 11 -42 20 -53 21 -13
1 -10 4 10 9 27 7 25 8 -16 9 -31 1 -54 -5 -68 -16 -53 -43 -81 -274 -45 -369
13 -34 22 -43 54 -53 20 -6 50 -11 65 -11 23 0 26 2 15 15 -7 8 -18 15 -26 15
-16 0 -27 17 -15 24 4 3 27 -8 50 -24 48 -36 69 -37 105 -9 35 27 27 35 -14
14 -34 -18 -36 -17 -92 34 -16 14 -28 29 -28 33 0 12 52 -16 74 -41 17 -19 21
-19 47 -5 16 8 32 14 35 13 9 -1 24 23 24 38 0 16 -35 5 -56 -18 -21 -23 -34
-24 -34 -4 0 9 10 20 23 26 51 23 72 40 79 61 4 16 6 9 7 -24 1 -26 6 -50 11
-53 6 -3 10 -21 10 -39 0 -17 5 -37 11 -43 5 -5 18 -25 27 -44 13 -26 28 -38
67 -51 56 -18 163 -25 113 -6 -27 9 -40 38 -18 38 19 0 60 -32 54 -42 -10 -16
34 1 75 29 20 13 48 27 64 30 18 4 27 12 27 24 0 23 -13 24 -30 3 -21 -25 -50
-37 -50 -21 0 15 57 60 77 60 14 0 19 13 28 67 l6 34 -31 -42 c-26 -37 -60
-56 -60 -34 0 14 80 93 89 88 14 -9 20 17 12 54 l-6 33 -28 -42 c-15 -22 -34
-41 -42 -41 -24 0 -18 11 30 60 40 41 45 50 39 78 -8 38 -23 37 -42 -1 -13
-27 -23 -33 -35 -21 -8 8 22 55 45 72 17 12 25 62 12 75 -11 11 -36 -6 -45
-31 -7 -18 -13 -22 -20 -15 -15 15 -2 51 22 58 10 4 19 13 19 21 0 31 20 11
38 -38 12 -32 23 -95 27 -158 8 -116 -7 -201 -50 -293 l-22 -47 28 0 c21 0 27
4 23 15 -8 19 7 19 32 0 30 -23 96 -19 112 6 8 12 9 18 3 14 -6 -3 -11 0 -11
8 0 8 19 22 41 33 29 12 46 29 55 51 20 46 18 49 -12 19 -29 -28 -67 -38 -44
-11 7 8 29 25 49 37 20 12 37 22 39 24 2 1 0 14 -4 28 l-6 27 -23 -21 c-16
-15 -25 -18 -30 -10 -4 6 11 29 34 53 28 28 41 50 41 69 0 36 -16 36 -35 -2
-10 -19 -20 -27 -30 -24 -23 9 -18 22 21 56 29 26 34 36 29 57 -10 42 -22 45
-40 11 -14 -27 -19 -30 -32 -18 -14 11 -11 16 22 45 37 32 38 33 20 53 -23 26
-45 26 -45 0 0 -24 -18 -27 -27 -5 -3 9 2 24 11 34 12 13 14 21 6 26 -17 11
-40 -3 -34 -20 8 -19 -6 -19 -42 0 -16 8 -48 15 -71 15 -25 0 -43 5 -43 11 0
12 79 8 111 -5 10 -4 16 -2 16 7 0 14 -28 19 -109 19 -27 0 -48 2 -48 6 0 4
-42 8 -93 8 -57 1 -80 -1 -61 -6 40 -9 56 -19 49 -31 -4 -5 -18 -3 -35 6 -16
8 -45 15 -64 15 -19 0 -38 5 -41 10 -7 11 -7 11 -53 0z m278 -26 c0 -8 -43
-43 -52 -44 -15 0 -8 29 10 39 19 12 42 14 42 5z m-91 -28 c41 -22 57 -44 42
-59 -9 -9 -17 -5 -37 21 -20 25 -33 32 -59 32 -19 0 -37 5 -40 10 -10 15 62
12 94 -4z m296 -46 c19 -12 35 -28 35 -36 0 -20 -18 -17 -30 6 -7 13 -25 21
-60 26 -35 5 -50 11 -50 22 0 20 59 10 105 -18z m-304 -25 c48 -17 79 -41 79
-62 0 -22 -20 -15 -50 17 -19 21 -37 30 -59 30 -21 0 -31 5 -31 15 0 19 7 19
61 0z m-118 -37 c39 -79 31 -246 -14 -310 -17 -23 -27 -29 -53 -26 -86 8 -114
248 -40 345 21 28 31 34 57 31 26 -2 36 -11 50 -40z m-306 8 c34 -30 26 -44
-10 -16 -14 11 -34 20 -45 20 -12 0 -24 5 -27 10 -13 21 55 9 82 -14z m705 -4
c30 -12 89 -73 82 -84 -4 -7 -17 1 -33 21 -16 20 -40 35 -61 40 -18 3 -35 12
-38 19 -4 13 22 15 50 4z m-813 -33 c15 -42 13 -165 -3 -209 -9 -26 -19 -36
-39 -38 -23 -3 -27 2 -38 40 -33 123 42 317 80 207z m105 -24 c32 -30 36 -54
4 -31 -13 9 -33 21 -45 26 -13 5 -23 14 -23 20 0 19 37 10 64 -15z m468 -18
c24 -18 44 -43 46 -55 4 -29 -16 -28 -28 2 -5 14 -26 30 -54 42 -25 11 -46 25
-46 32 0 22 38 13 82 -21z m-398 -34 c-22 -29 -44 -41 -44 -24 0 13 52 62 59
55 2 -2 -4 -16 -15 -31z m669 -10 c37 -26 64 -60 54 -70 -3 -2 -24 14 -46 36
-23 23 -48 41 -56 41 -8 0 -15 5 -15 10 0 17 22 11 63 -17z m-760 6 c36 -19
49 -49 22 -49 -8 0 -15 4 -15 9 0 5 -9 13 -20 16 -11 3 -20 13 -20 21 0 17 5
17 33 3z m508 -91 c25 -31 29 -42 19 -51 -10 -9 -14 -9 -17 1 -9 24 -54 71
-73 77 -11 4 -20 13 -20 20 0 25 58 -4 91 -47z m-391 49 c0 -12 -59 -57 -64
-48 -8 12 32 51 51 51 7 0 13 -1 13 -3z m-82 -54 c6 -9 12 -20 12 -25 0 -12
-18 -10 -26 3 -3 6 -22 17 -41 25 -18 8 -31 19 -28 24 8 13 68 -7 83 -27z
m728 -10 c35 -38 45 -73 20 -73 -8 0 -16 10 -18 22 -2 13 -17 32 -35 43 -18
11 -32 26 -33 33 0 24 33 12 66 -25z m-283 -71 c24 -22 37 -62 21 -62 -3 0
-20 15 -38 33 -18 17 -41 38 -50 45 -9 7 -14 17 -11 23 8 12 41 -5 78 -39z
m248 -15 c17 -13 39 -50 39 -66 0 -6 -7 -11 -15 -11 -8 0 -15 9 -15 20 0 13
-12 28 -30 38 -16 9 -30 22 -30 29 0 13 27 8 51 -10z m-284 -70 c21 -20 33
-39 29 -45 -11 -19 -25 -14 -37 12 -6 13 -22 30 -35 37 -13 7 -24 16 -24 21 0
18 32 6 67 -25z m283 -59 c0 -4 -6 -8 -13 -8 -17 0 -79 64 -71 73 7 7 84 -52
84 -65z"/>
<path d="M544 775 c-3 -14 -13 -25 -23 -25 -13 -1 -12 -3 4 -11 11 -6 35 -27
53 -47 l33 -37 -20 35 c-12 19 -21 49 -21 67 0 40 -17 52 -26 18z"/>
<path d="M1295 791 c3 -5 -3 -12 -12 -14 -15 -4 -14 -5 3 -6 12 0 27 6 34 14
10 13 9 15 -9 15 -12 0 -20 -4 -16 -9z"/>
<path d="M2491 488 c-6 -7 -23 -28 -37 -46 -53 -66 -136 -83 -178 -37 -13 14
-28 25 -34 25 -15 0 -24 -32 -12 -44 5 -5 10 -19 10 -31 0 -29 52 -54 130 -61
36 -3 73 -10 82 -15 24 -13 32 -11 19 5 -20 24 6 29 29 6 39 -39 55 -1 19 44
-12 15 -19 29 -16 32 9 9 68 -49 63 -62 -3 -8 0 -11 10 -7 8 3 13 11 12 18 -2
7 17 27 41 46 25 19 47 41 49 49 4 12 1 11 -15 -2 -11 -10 -26 -18 -33 -18
-19 0 19 40 48 51 17 6 22 16 20 32 -3 21 -8 22 -100 25 -69 2 -100 -1 -107
-10z m143 -49 c-8 -13 -24 -1 -24 18 0 13 3 13 15 3 8 -7 12 -16 9 -21z m-42
-33 c22 -26 23 -56 3 -56 -8 0 -15 8 -15 17 0 20 -28 53 -47 53 -14 0 -17 12
-7 23 9 9 46 -11 66 -37z"/>
<path d="M2648 353 c-19 -22 -32 -56 -18 -48 10 6 43 65 37 65 -2 0 -11 -8
-19 -17z"/>
<path d="M2080 310 c-14 -11 -20 -20 -14 -20 14 0 50 27 44 33 -3 3 -16 -3
-30 -13z"/>
<path d="M1780 264 l-25 -14 29 2 c16 2 31 9 34 16 5 16 -7 15 -38 -4z"/>
</g>
</svg>
