<?xml version="1.0" standalone="no"?>
<!DOCTYPE svg PUBLIC "-//W3C//DTD SVG 20010904//EN"
 "http://www.w3.org/TR/2001/REC-SVG-20010904/DTD/svg10.dtd">
<svg version="1.0" xmlns="http://www.w3.org/2000/svg"
 width="250.000000pt" height="250.000000pt" viewBox="0 0 250.000000 250.000000"
 preserveAspectRatio="xMidYMid meet">
<metadata>
Created by potrace 1.11, written by Peter Selinger 2001-2013
</metadata>
<g transform="translate(0.000000,250.000000) scale(0.100000,-0.100000)"
fill="#000000" stroke="none">
<path d="M476 2061 c-2 -3 -7 -22 -12 -41 -11 -50 -11 -50 -14 -52 -1 -2 -3
-12 -5 -23 -2 -11 -8 -35 -14 -54 -6 -19 -8 -38 -5 -42 3 -5 1 -9 -4 -9 -5 0
-13 -19 -17 -42 -4 -24 -9 -47 -11 -53 -1 -5 -5 -20 -8 -32 -3 -13 -8 -32 -11
-43 -3 -11 -7 -29 -10 -40 -8 -32 -16 -64 -20 -80 -2 -8 -4 -15 -5 -15 -1 0
-3 -9 -5 -20 -3 -11 -14 -56 -25 -100 -12 -44 -23 -87 -25 -95 -2 -8 -8 -35
-15 -60 -6 -25 -13 -54 -15 -65 -2 -11 -7 -31 -13 -45 -5 -14 -8 -33 -7 -42 2
-10 -1 -18 -6 -18 -5 0 -9 -13 -9 -28 0 -16 -3 -32 -7 -36 -5 -4 -8 -15 -9
-24 0 -10 -3 -24 -7 -32 -9 -25 -20 -74 -21 -95 -1 -11 -7 -26 -14 -33 -7 -8
-10 -17 -7 -22 3 -4 -2 -29 -9 -54 -8 -26 -15 -49 -15 -51 -1 -6 -3 -11 -6
-22 -1 -5 -5 -26 -10 -48 -4 -22 -11 -44 -15 -50 -4 -5 -6 -20 -5 -32 1 -13
-1 -23 -5 -23 -4 0 -7 -6 -8 -12 0 -7 -4 -31 -7 -53 -7 -38 -6 -41 17 -40 13
1 29 5 36 9 7 4 12 3 12 -2 0 -10 30 -9 48 2 7 4 12 2 12 -4 0 -8 6 -7 21 1
14 7 24 7 28 1 7 -10 40 -10 58 1 6 4 15 2 19 -4 4 -8 9 -7 15 2 7 12 9 12 9
0 0 -11 3 -11 15 -1 8 7 15 8 15 3 0 -11 29 -11 46 -1 5 4 16 3 24 -2 7 -4 23
-4 36 0 12 5 25 6 29 2 5 -4 5 3 2 15 -3 13 -2 25 3 28 4 3 6 18 5 35 -1 16 1
30 5 30 4 0 7 16 6 35 -1 19 2 35 6 35 4 0 5 7 2 15 -4 8 -2 15 4 15 5 0 8 11
6 25 -1 16 4 28 14 33 10 4 76 7 147 6 175 -2 171 -1 172 -21 1 -10 8 -56 17
-103 19 -101 24 -132 25 -143 1 -5 5 -5 11 -2 5 3 10 1 10 -4 0 -13 22 -10 32
4 5 6 8 5 8 -4 0 -11 3 -11 15 -1 8 7 15 8 15 3 0 -10 36 -11 46 -1 3 4 13 4
22 0 22 -8 65 -7 80 2 7 4 12 4 12 -1 0 -10 52 -9 68 1 7 4 12 4 12 -1 0 -10
52 -9 68 1 7 4 12 2 12 -4 0 -8 6 -8 21 0 14 8 18 17 13 28 -4 9 -8 27 -9 39
-1 13 -5 26 -8 30 -4 3 -7 17 -7 29 0 13 -4 25 -9 28 -5 3 -11 20 -14 38 -3
18 -8 44 -11 58 -4 14 -10 42 -13 62 -3 21 -8 36 -12 34 -3 -2 -7 7 -8 20 -6
55 -8 64 -14 64 -4 0 -5 9 -2 20 3 12 0 20 -8 20 -7 0 -10 2 -7 6 3 3 -2 36
-12 75 -10 38 -18 70 -18 72 -1 1 -3 9 -6 17 -4 14 -14 57 -16 72 -1 4 -10 37
-20 73 -10 36 -16 65 -13 65 3 0 0 7 -7 15 -7 8 -10 15 -7 15 3 0 -1 20 -9 45
-7 25 -10 45 -7 45 3 0 1 6 -4 13 -6 6 -9 20 -8 30 2 9 -1 17 -7 17 -6 0 -8 7
-4 15 3 8 2 15 -2 15 -4 0 -9 8 -10 18 -2 28 -8 54 -21 102 -7 25 -15 52 -17
60 -26 113 -60 236 -66 238 -4 2 -5 9 -3 15 3 7 -3 39 -13 72 l-18 60 -242 1
c-134 0 -244 -2 -246 -5z m258 -438 c3 -21 8 -56 11 -78 3 -22 7 -51 10 -65
12 -58 18 -97 19 -122 1 -16 3 -28 6 -28 3 0 7 -15 9 -32 5 -61 7 -73 12 -83
3 -6 6 -26 8 -45 2 -19 6 -42 10 -50 5 -8 7 -28 7 -45 l-1 -30 -90 2 c-128 1
-123 0 -120 26 1 12 3 22 5 22 2 0 5 20 14 85 2 19 7 46 10 60 7 33 14 73 22
126 3 25 10 41 16 38 6 -4 6 2 -1 13 -6 11 -8 23 -5 25 2 3 7 21 10 39 3 19 7
45 10 59 7 35 12 71 13 98 2 36 18 25 25 -15z"/>
<path d="M1473 2057 c-3 -5 -6 -1289 -3 -1583 0 -36 3 -42 25 -46 13 -3 23 -2
20 1 -2 4 84 6 190 5 107 0 192 3 189 8 -3 4 -1 8 5 8 6 0 6 11 1 29 -4 15 -4
34 1 42 4 8 3 19 -3 26 -6 7 -7 13 -2 13 5 0 9 123 9 272 l0 273 240 1 c132 1
243 2 246 3 4 0 5 15 4 31 -1 17 2 30 9 30 7 0 7 3 1 8 -6 4 -10 25 -10 47 0
22 4 43 10 47 6 5 6 8 -2 8 -11 0 -10 36 2 48 2 3 0 11 -6 19 -9 10 -8 17 1
28 7 9 8 15 2 15 -6 0 -9 10 -8 23 3 21 -1 22 -71 22 -40 0 -73 -3 -73 -8 0
-4 -5 -5 -11 -1 -17 10 -189 12 -189 2 0 -5 -5 -6 -12 -2 -18 11 -68 13 -68 2
0 -5 -6 -6 -12 -1 -7 4 -23 6 -36 4 -19 -2 -22 2 -20 26 1 16 -1 33 -4 39 -4
5 -3 16 2 24 5 9 5 19 -2 27 -7 9 -7 13 0 13 11 0 11 18 0 35 -4 6 -3 17 2 25
4 7 4 24 -1 37 -5 14 -5 23 1 23 5 0 7 6 4 13 -3 8 2 20 11 27 8 7 15 8 15 4
0 -5 22 -9 49 -9 27 0 48 2 46 6 -2 3 2 6 10 6 8 0 15 -3 15 -7 0 -4 7 -7 15
-7 8 0 15 5 15 11 0 7 3 8 8 1 7 -11 103 -15 97 -5 -2 4 2 7 10 7 8 0 15 -4
15 -9 0 -11 23 -6 32 7 5 7 8 6 8 0 0 -9 47 -11 165 -6 19 1 20 8 20 170 0 93
-3 167 -7 165 -4 -2 -9 -1 -12 4 -6 9 -90 7 -106 -3 -6 -3 -10 -3 -10 2 0 9
-157 10 -166 0 -3 -3 -16 -2 -28 2 -23 8 -86 7 -110 -2 -9 -4 -16 -3 -16 1 0
4 -22 7 -50 7 -27 0 -50 -4 -50 -10 0 -7 -3 -7 -8 0 -8 12 -132 14 -132 2 0
-5 -5 -5 -11 -1 -16 9 -250 11 -256 1z"/>
</g>
</svg>
